Coordinates
version=1
nRows=34
nColumns=33
inDegrees=yes

Units are S.I. units (second, meters, Newtons, ...)
Angles are in degrees.

endheader
time	ground_thorax_rot_x	ground_thorax_rot_y	ground_thorax_rot_z	ground_thorax_tx	ground_thorax_ty	ground_thorax_tz	clav_prot_r	clav_elev_r	scapula_abduction_r	scapula_elevation_r	scapula_upward_rot_r	scapula_winging_r	shoulder_elv_r	plane_of_elev_r	axial_rot_r	elbow_flexion_r	pro_sup_r	wrist_flex_r	wrist_dev_r	clav_prot_l	clav_elev_l	scapula_abduction_l	scapula_elevation_l	scapula_upward_rot_l	scapula_winging_l	shoulder_elv_l	plane_of_elev_l	axial_rot_l	elbow_flexion_l	pro_sup_l	wrist_flex_l	wrist_dev_l	
6.2400	39.886482	9.363339	11.840664	-236.863786	847.044685	2.982896	13.261711	35.997371	36.474861	45.000000	-45.000000	1354.492429	-2983.203282	143.366399	180.000000	2173.731937	56.673623	22.712124	5.948616	-1.345839	-45.000000	-40.345762	45.000000	10.745841	-2769.748464	-1710.606464	13.784861	180.000000	1085.786607	210.965878	10.819236	-19.881582	
6.2500	39.910563	9.366998	11.851992	-237.240480	846.973915	2.971362	13.217675	35.985870	36.457092	45.000000	-45.000000	1354.515409	-2983.217702	143.441583	180.000000	2173.681635	56.755385	22.720286	5.904694	-1.389590	-45.000000	-40.378379	45.000000	10.708033	-2769.738997	-1710.590489	13.714021	180.000000	1085.815383	210.992685	10.757530	-19.911703	
6.2600	39.918226	9.332606	11.836730	-237.599037	846.894040	2.960385	13.142688	36.007633	36.381329	45.000000	-45.000000	1354.527017	-2983.243496	143.415079	180.000000	2173.638449	56.813761	22.749390	5.778913	-1.369265	-45.000000	-40.271630	45.000000	10.690130	-2769.773806	-1710.604654	13.707984	180.000000	1085.911381	211.019852	10.632586	-19.940401	
6.2700	39.924477	9.312110	11.834643	-237.917555	846.795770	2.948815	13.106046	36.007889	36.324816	45.000000	-45.000000	1354.549711	-2983.269775	143.426955	180.000000	2173.607346	56.861570	22.766699	5.715959	-1.362623	-45.000000	-40.232786	45.000000	10.658350	-2769.772184	-1710.615965	13.695264	180.000000	1085.968366	211.059128	10.570534	-19.965450	
6.2800	39.925450	9.290042	11.837899	-238.191305	846.676604	2.938185	13.089631	36.000573	36.251345	45.000000	-45.000000	1354.584727	-2983.276854	143.425610	180.000000	2173.581396	56.887169	22.786802	5.679391	-1.352368	-45.000000	-40.195019	45.000000	10.625576	-2769.759277	-1710.633819	13.698350	180.000000	1086.024801	211.107365	10.532905	-19.987803	
6.2900	39.922916	9.261708	11.846976	-238.412475	846.532463	2.929716	13.076736	35.994405	36.195576	45.000000	-45.000000	1354.618488	-2983.296359	143.423181	180.000000	2173.552092	56.880514	22.805534	5.649705	-1.333097	-45.000000	-40.165429	45.000000	10.593858	-2769.736842	-1710.655339	13.701914	180.000000	1086.070880	211.161406	10.502820	-20.007303	
6.3000	39.916375	9.241546	11.869391	-238.576795	846.361674	2.925054	13.074457	35.981415	36.135427	45.000000	-45.000000	1354.661359	-2983.305054	143.425390	180.000000	2173.526396	56.837236	22.828714	5.640891	-1.321160	-45.000000	-40.147166	45.000000	10.565122	-2769.707001	-1710.678666	13.706912	180.000000	1086.116719	211.221675	10.486405	-20.024261	
6.3100	39.907295	9.216562	11.894255	-238.682162	846.163633	2.925661	13.056403	35.974466	36.109977	45.000000	-45.000000	1354.691873	-2983.346308	143.435720	180.000000	2173.495500	56.750355	22.851551	5.619106	-1.304742	-45.000000	-40.136971	45.000000	10.544799	-2769.679761	-1710.704387	13.700293	180.000000	1086.152162	211.282119	10.455417	-20.039127	
6.3200	39.894628	9.206733	11.934444	-238.725678	845.939059	2.932375	13.050670	35.961327	36.081893	45.000000	-45.000000	1354.732427	-2983.374086	143.458263	180.000000	2173.467833	56.626221	22.878626	5.622154	-1.302555	-45.000000	-40.147290	45.000000	10.529799	-2769.646352	-1710.727756	13.689374	180.000000	1086.185026	211.346503	10.436804	-20.051271	
6.3300	39.878038	9.193164	11.970274	-238.705389	845.689389	2.945393	13.033874	35.950665	36.085810	45.000000	-45.000000	1354.759643	-2983.434304	143.487496	180.000000	2173.439125	56.466654	22.901952	5.619161	-1.296483	-45.000000	-40.169656	45.000000	10.525415	-2769.616710	-1710.755692	13.671539	180.000000	1086.202546	211.410526	10.410433	-20.061023	
6.3400	39.854278	9.197054	12.016590	-238.619403	845.417730	2.964319	13.033545	35.940622	36.066745	45.000000	-45.000000	1354.798528	-2983.475213	143.514308	180.000000	2173.420455	56.284691	22.931172	5.634969	-1.296786	-45.000000	-40.190821	45.000000	10.530714	-2769.588513	-1710.785172	13.665730	180.000000	1086.229663	211.478375	10.393878	-20.067351	
6.3500	39.829721	9.190501	12.050484	-238.467159	845.128026	2.988182	13.023410	35.927803	36.079119	45.000000	-45.000000	1354.822623	-2983.538848	143.538403	180.000000	2173.400759	56.091814	22.953817	5.647710	-1.293288	-45.000000	-40.222078	45.000000	10.548762	-2769.564218	-1710.820281	13.655122	180.000000	1086.237311	211.544343	10.373213	-20.072144	
6.3600	39.802966	9.194398	12.091384	-238.249176	844.825231	3.015641	13.030769	35.919721	36.070842	45.000000	-45.000000	1354.858938	-2983.569881	143.551021	180.000000	2173.385967	55.904911	22.980679	5.677848	-1.294421	-45.000000	-40.248042	45.000000	10.579166	-2769.539881	-1710.856120	13.653359	180.000000	1086.250335	211.612272	10.361312	-20.075001	
6.3700	39.777089	9.193627	12.124599	-237.967893	844.514436	3.045105	13.034241	35.910056	36.084385	45.000000	-45.000000	1354.882220	-2983.610456	143.556398	180.000000	2173.371448	55.737445	22.999129	5.704813	-1.292094	-45.000000	-40.280064	45.000000	10.622945	-2769.517952	-1710.896349	13.649887	180.000000	1086.251420	211.678166	10.348876	-20.075742	
6.3800	39.750508	9.207153	12.164342	-237.626910	844.200600	3.074975	13.052607	35.912717	36.080812	45.000000	-45.000000	1354.917243	-2983.623174	143.559831	180.000000	2173.371366	55.604484	23.022254	5.740868	-1.294793	-45.000000	-40.311139	45.000000	10.678023	-2769.497557	-1710.936112	13.650899	180.000000	1086.258134	211.743464	10.343324	-20.074506	
6.3900	39.725747	9.216475	12.198494	-237.230929	843.887852	3.103748	13.067653	35.910543	36.095207	45.000000	-45.000000	1354.937255	-2983.643632	143.551468	180.000000	2173.379656	55.516891	23.036191	5.768615	-1.294257	-45.000000	-40.346029	45.000000	10.743783	-2769.478615	-1710.977616	13.650928	180.000000	1086.259251	211.804619	10.339014	-20.070365	
6.4000	39.700029	9.233257	12.235750	-236.785109	843.578923	3.130146	13.091639	35.920249	36.100174	45.000000	-45.000000	1354.968768	-2983.642882	143.541316	180.000000	2173.403526	55.482729	23.053601	5.799432	-1.298796	-45.000000	-40.382249	45.000000	10.820415	-2769.461111	-1711.017461	13.651971	180.000000	1086.260283	211.861283	10.339731	-20.064566	
6.4100	39.673464	9.255914	12.278252	-236.294472	843.274949	3.153159	13.115197	35.921349	36.113667	45.000000	-45.000000	1354.986434	-2983.649863	143.517020	180.000000	2173.429330	55.504674	23.058723	5.819537	-1.299144	-45.000000	-40.418440	45.000000	10.905073	-2769.443562	-1711.054472	13.657719	180.000000	1086.267656	211.912344	10.343450	-20.053236	
6.4200	39.646754	9.279233	12.316336	-235.762882	842.974958	3.172121	13.137673	35.931079	36.124422	45.000000	-45.000000	1355.014860	-2983.642301	143.495312	180.000000	2173.470071	55.580018	23.067526	5.838660	-1.303447	-45.000000	-40.462018	45.000000	10.998627	-2769.429615	-1711.091053	13.661544	180.000000	1086.266154	211.954708	10.350200	-20.040344	
6.4300	39.619809	9.310179	12.361443	-235.192520	842.676039	3.186692	13.152492	35.926843	36.141717	45.000000	-45.000000	1355.031215	-2983.644238	143.462796	180.000000	2173.509695	55.699550	23.063931	5.846123	-1.302595	-45.000000	-40.510104	45.000000	11.096550	-2769.415017	-1711.125313	13.666083	180.000000	1086.266115	211.988787	10.359387	-20.021572	
6.4400	39.594679	9.335733	12.395319	-234.583327	842.373481	3.196848	13.156872	35.931333	36.163356	45.000000	-45.000000	1355.063497	-2983.633063	143.442869	180.000000	2173.560214	55.849685	23.067553	5.854499	-1.304023	-45.000000	-40.571580	45.000000	11.200710	-2769.406135	-1711.164585	13.663662	180.000000	1086.246687	212.011633	10.369588	-20.001129	
6.4500	39.570725	9.372094	12.438402	-233.932833	842.061203	3.202802	13.160026	35.928594	36.184989	45.000000	-45.000000	1355.088777	-2983.623619	143.413587	180.000000	2173.604205	56.015493	23.063528	5.857458	-1.301785	-45.000000	-40.628237	45.000000	11.306352	-2769.400433	-1711.207518	13.665541	180.000000	1086.234793	212.026457	10.384104	-19.973651	
6.4600	39.548083	9.404334	12.476680	-233.236440	841.732175	3.204931	13.156675	35.932020	36.212938	45.000000	-45.000000	1355.124027	-2983.604763	143.394237	180.000000	2173.658696	56.179473	23.066713	5.863142	-1.307047	-45.000000	-40.686798	45.000000	11.410813	-2769.406520	-1711.256948	13.660390	180.000000	1086.208905	212.030599	10.400236	-19.942276	
6.4700	39.522506	9.455454	12.540801	-232.488286	841.379127	3.203663	13.158167	35.926992	36.238011	45.000000	-45.000000	1355.152012	-2983.592542	143.362901	180.000000	2173.699114	56.325727	23.059502	5.868117	-1.313526	-45.000000	-40.732715	45.000000	11.507441	-2769.416222	-1711.305769	13.659819	180.000000	1086.195304	212.028277	10.421078	-19.902153	
6.4800	39.494792	9.510004	12.610295	-231.682079	840.995113	3.199379	13.152709	35.923696	36.264120	45.000000	-45.000000	1355.190710	-2983.575539	143.337706	180.000000	2173.741905	56.437929	23.056480	5.880901	-1.323707	-45.000000	-40.783094	45.000000	11.597695	-2769.434272	-1711.360234	13.654889	180.000000	1086.170334	212.017592	10.443567	-19.857336	
6.4900	39.467324	9.571860	12.690040	-230.811919	840.573973	3.192374	13.147609	35.914880	36.307956	45.000000	-45.000000	1355.215861	-2983.582336	143.305955	180.000000	2173.770770	56.505160	23.046641	5.899324	-1.327833	-45.000000	-40.832103	45.000000	11.686549	-2769.448266	-1711.424436	13.657524	180.000000	1086.143163	212.000903	10.470844	-19.809872	
6.5000	39.440689	9.632399	12.766321	-229.872933	840.110680	3.182825	13.135621	35.907316	36.372338	45.000000	-45.000000	1355.240482	-2983.604367	143.284389	180.000000	2173.802444	56.517146	23.041127	5.929157	-1.330721	-45.000000	-40.892475	45.000000	11.777618	-2769.461310	-1711.500756	13.659252	180.000000	1086.097259	211.977574	10.500038	-19.761717	
6.5100	39.414792	9.698516	12.848767	-228.861740	839.601601	3.170815	13.124502	35.899910	36.463478	45.000000	-45.000000	1355.257680	-2983.652769	143.267013	180.000000	2173.820553	56.469009	23.032513	5.971643	-1.326432	-45.000000	-40.963135	45.000000	11.872451	-2769.462790	-1711.587873	13.666270	180.000000	1086.042012	211.950472	10.532467	-19.712630	
6.5200	39.390508	9.769242	12.930816	-227.776096	839.044316	3.156356	13.108978	35.894667	36.567303	45.000000	-45.000000	1355.281158	-2983.707304	143.258820	180.000000	2173.839915	56.356278	23.028203	6.029978	-1.318773	-45.000000	-41.049451	45.000000	11.970619	-2769.459614	-1711.686142	13.670704	180.000000	1085.976091	211.921608	10.566173	-19.660854	
6.5300	39.370147	9.842158	13.015495	-226.614926	838.437583	3.139454	13.110667	35.897597	36.693959	45.000000	-45.000000	1355.292724	-2983.781008	143.242762	180.000000	2173.849927	56.178528	23.022117	6.103584	-1.309923	-45.000000	-41.137818	45.000000	12.077509	-2769.444721	-1711.796436	13.682268	180.000000	1085.912000	211.894423	10.603583	-19.607582	
6.5400	39.348483	9.933669	13.117953	-225.377675	837.780877	3.120142	13.115838	35.897884	36.814373	45.000000	-45.000000	1355.312621	-2983.851057	143.224130	180.000000	2173.855918	55.937051	23.014308	6.193297	-1.304174	-45.000000	-41.229708	45.000000	12.181833	-2769.427885	-1711.907785	13.691107	180.000000	1085.856107	211.872464	10.641564	-19.546315	
6.5500	39.328234	10.038383	13.235520	-224.064404	837.074291	3.098507	13.146673	35.908063	36.934815	45.000000	-44.999999	1355.329251	-2983.922497	143.188254	180.000000	2173.847447	55.633599	23.001896	6.299876	-1.301951	-45.000000	-41.320549	45.000000	12.287386	-2769.402025	-1712.024761	13.705230	180.000000	1085.815067	211.858891	10.681807	-19.480117	
6.5600	39.305699	10.167706	13.372512	-222.675076	836.318071	3.074671	13.166775	35.910808	37.037121	45.000000	-44.999999	1355.367260	-2983.980763	143.156446	180.000000	2173.833868	55.274548	22.988062	6.422603	-1.299826	-45.000000	-41.422232	45.000000	12.385731	-2769.375688	-1712.140746	13.711961	180.000000	1085.780348	211.855474	10.719463	-19.405215	
6.5700	39.289301	10.302281	13.511333	-221.209840	835.512620	3.048771	13.213614	35.927855	37.152168	45.000000	-44.999998	1355.397373	-2984.048709	143.113974	180.000000	2173.808354	54.863762	22.971573	6.560637	-1.301857	-45.000000	-41.526321	45.000000	12.490492	-2769.338761	-1712.270055	13.722869	180.000000	1085.752294	211.863990	10.757963	-19.329741	
